<svg xmlns="http://www.w3.org/2000/svg" xmlns:xlink="http://www.w3.org/1999/xlink" id="processonSvg1000" viewBox="14.0 303.75 902.0 390.0" width="902.0" height="390.0"><defs id="ProcessOnDefs1001"><marker id="ProcessOnMarker1013" markerUnits="userSpaceOnUse" orient="auto" markerWidth="16.23606797749979" markerHeight="10.550836550532098" viewBox="-1.0 -1.3763819204711736 16.23606797749979 10.550836550532098" refX="-1.0" refY="3.8990363547948754"><path id="ProcessOnPath1014" d="M12.0 3.8990363547948754L0.0 7.798072709589751V0.0Z" stroke="#323232" stroke-width="2.0" fill="#323232" transform="matrix(1.0,0.0,0.0,1.0,0.0,0.0)"/></marker><marker id="ProcessOnMarker1022" markerUnits="userSpaceOnUse" orient="auto" markerWidth="16.23606797749979" markerHeight="10.550836550532098" viewBox="-1.0 -1.3763819204711736 16.23606797749979 10.550836550532098" refX="-1.0" refY="3.8990363547948754"><path id="ProcessOnPath1023" d="M12.0 3.8990363547948754L0.0 7.798072709589751V0.0Z" stroke="#323232" stroke-width="2.0" fill="#323232" transform="matrix(1.0,0.0,0.0,1.0,0.0,0.0)"/></marker><marker id="ProcessOnMarker1053" markerUnits="userSpaceOnUse" orient="auto" markerWidth="16.23606797749979" markerHeight="10.550836550532098" viewBox="-1.0 -1.3763819204711736 16.23606797749979 10.550836550532098" refX="-1.0" refY="3.8990363547948754"><path id="ProcessOnPath1054" d="M12.0 3.8990363547948754L0.0 7.798072709589751V0.0Z" stroke="#323232" stroke-width="2.0" fill="#323232" transform="matrix(1.0,0.0,0.0,1.0,0.0,0.0)"/></marker><marker id="ProcessOnMarker1057" markerUnits="userSpaceOnUse" orient="auto" markerWidth="16.23606797749979" markerHeight="10.550836550532098" viewBox="-1.0 -1.3763819204711736 16.23606797749979 10.550836550532098" refX="-1.0" refY="3.8990363547948754"><path id="ProcessOnPath1058" d="M12.0 3.8990363547948754L0.0 7.798072709589751V0.0Z" stroke="#323232" stroke-width="2.0" fill="#323232" transform="matrix(1.0,0.0,0.0,1.0,0.0,0.0)"/></marker><marker id="ProcessOnMarker1061" markerUnits="userSpaceOnUse" orient="auto" markerWidth="16.23606797749979" markerHeight="10.550836550532098" viewBox="-1.0 -1.3763819204711736 16.23606797749979 10.550836550532098" refX="-1.0" refY="3.8990363547948754"><path id="ProcessOnPath1062" d="M12.0 3.8990363547948754L0.0 7.798072709589751V0.0Z" stroke="#323232" stroke-width="2.0" fill="#323232" transform="matrix(1.0,0.0,0.0,1.0,0.0,0.0)"/></marker><marker id="ProcessOnMarker1065" markerUnits="userSpaceOnUse" orient="auto" markerWidth="16.23606797749979" markerHeight="10.550836550532098" viewBox="-1.0 -1.3763819204711736 16.23606797749979 10.550836550532098" refX="-1.0" refY="3.8990363547948754"><path id="ProcessOnPath1066" d="M12.0 3.8990363547948754L0.0 7.798072709589751V0.0Z" stroke="#323232" stroke-width="2.0" fill="#323232" transform="matrix(1.0,0.0,0.0,1.0,0.0,0.0)"/></marker></defs><g id="ProcessOnG1002"><path id="ProcessOnPath1003" d="M14.0 303.75H916.0V693.75H14.0V303.75Z" fill="none"/><g id="ProcessOnG1004"><g id="ProcessOnG1005" transform="matrix(1.0,0.0,0.0,1.0,170.0,474.75)" opacity="1.0"><g id="ProcessOnG1007" transform="matrix(1.0,0.0,0.0,1.0,0.0,0.0)"> <path fill="#72ADCE" d="M64.119,21.457c0.015-0.451,0.021-0.863,0.021-1.186c0-5.415-2.107-10.506-5.936-14.334 C54.378,2.108,49.288,0,43.875,0c-4.194,0-8.32,1.428-11.931,4.129c-2.465,1.845-4.536,4.195-6.028,6.807 c-1.636-0.853-3.449-1.297-5.328-1.297c-3.008,0-5.899,1.396-8.141,3.93c-1.496,1.689-2.561,3.748-3.079,5.886 c-2.539,1.004-4.798,2.726-6.439,4.924C1.013,26.946,0,30.002,0,33.215C0,41.368,6.631,48,14.782,48v-0.035h47.954v0.02 C70.05,47.984,76,42.034,76,34.718C76,27.896,70.757,22.194,64.119,21.457z"/>  </g></g><g id="ProcessOnG1008" transform="matrix(1.0,0.0,0.0,1.0,34.0,462.75)" opacity="1.0"><g id="ProcessOnG1010" transform="matrix(1.0,0.0,0.0,1.0,0.0,0.0)"> <g> <path fill="#7D7C7C" d="M63.244,29.542c6.9,0,11.756,4.349,11.756,10.614v13.556h-6.135v-9.207h-1.66v9.207h-9.327 c-0.64-6.905-6.133-11.509-13.927-11.509h-5.365v-3.71c6.004-0.511,10.73-2.813,11.243-8.823c0.256,0,0.383,0,0.51,0h12.905V29.542 z"/> <path fill="#7D7C7C" d="M24.531,29.542c0.255,0,0.383,0,0.511,0c0.512,6.011,5.238,8.313,11.244,8.824v3.708h-5.239 c-7.794,0-13.287,4.732-13.927,11.511H8.049v-9.209H6.388v9.209H0V40.156c0-6.266,4.854-10.614,11.754-10.614H24.531z"/> <path fill="#7D7C7C" d="M43.951,47.829c6.898,0,11.755,4.35,11.755,10.614V72h-6.133v-9.207h-1.661V72H27.214v-9.207h-1.66V72 h-6.389V58.444c0-6.266,4.854-10.615,11.754-10.615H43.951L43.951,47.829z"/> <path fill="#7D7C7C" d="M18.143,3.197l10.222,7.29v3.197c0,5.755-4.601,10.486-10.222,10.486c-5.622,0-10.222-4.731-10.222-10.87 v-2.94L18.143,3.197z"/> <path fill="#7D7C7C" d="M56.729,3.197l10.222,7.29v3.197c0,5.755-4.601,10.486-10.222,10.486s-10.223-4.731-10.223-10.87v-2.94 L56.729,3.197z"/> <path fill="#7D7C7C" d="M37.436,17.393l9.07,6.395v2.813c0,5.115-4.087,9.208-9.07,9.208c-4.982,0-9.071-4.093-9.071-9.72v-2.431 L37.436,17.393z"/> <path fill="#D2D3D3" d="M56.855,0c5.621,0,10.223,4.731,10.223,10.359c0,5.755-4.602,10.486-10.223,10.486 s-10.222-4.732-10.222-10.486C46.634,4.604,51.234,0,56.855,0z"/> <path fill="#D2D3D3" d="M37.436,14.195c4.983,0,9.07,4.094,9.07,9.209s-4.087,9.208-9.07,9.208c-4.982,0-9.071-4.092-9.071-9.208 C28.364,18.416,32.453,14.195,37.436,14.195z"/> <path fill="#D2D3D3" d="M63.244,26.345c6.9,0,11.756,4.349,11.756,10.614v13.557h-6.135v-9.208h-1.66v9.208h-9.327 c-0.64-6.905-6.133-11.51-13.927-11.51h-5.365v-1.15c6.004-0.514,10.73-5.372,11.243-11.382c0.256,0,0.383,0,0.51,0h12.905V26.345z "/> <path fill="#D2D3D3" d="M24.531,26.345c0.255,0,0.383,0,0.511,0c0.512,6.011,5.238,10.87,11.244,11.384v1.149h-5.239 c-7.794,0-13.287,4.732-13.927,11.51H8.049v-9.209H6.388v9.209H0V36.959c0-6.266,4.854-10.614,11.754-10.614H24.531z"/> <path fill="#D2D3D3" d="M43.951,44.632c6.898,0,11.755,4.349,11.755,10.614v13.556h-6.133v-9.206h-1.661v9.206H27.214v-9.206h-1.66 v9.206h-6.389V55.246c0-6.266,4.854-10.613,11.754-10.613L43.951,44.632L43.951,44.632z"/> <path fill="#D2D3D3" d="M18.143,0c5.621,0,10.222,4.731,10.222,10.359c0,5.755-4.601,10.486-10.222,10.486 c-5.622,0-10.222-4.732-10.222-10.486C7.921,4.731,12.521,0,18.143,0z"/> </g>  </g></g><g id="ProcessOnG1011"><path id="ProcessOnPath1012" d="M109.0 498.75L139.5 498.75L139.5 498.75L154.7639320225002 498.75" stroke="#323232" stroke-width="2.0" stroke-dasharray="none" fill="none" marker-end="url(#ProcessOnMarker1013)"/></g><g id="ProcessOnG1015" transform="matrix(1.0,0.0,0.0,1.0,298.0,463.75)" opacity="1.0"><path id="ProcessOnPath1016" d="M0.0 4.0Q0.0 0.0 4.0 0.0L96.0 0.0Q100.0 0.0 100.0 4.0L100.0 66.0Q100.0 70.0 96.0 70.0L4.0 70.0Q0.0 70.0 0.0 66.0Z" stroke="#323232" stroke-width="2.0" stroke-dasharray="none" opacity="1.0" fill="#ffffff"/><g id="ProcessOnG1017" transform="matrix(1.0,0.0,0.0,1.0,10.0,18.75)"><text id="ProcessOnText1018" fill="#000000" font-size="13" x="39.0" y="13.325" font-family="微软雅黑" font-weight="normal" font-style="normal" text-decoration="none" family="微软雅黑" text-anchor="middle" size="13">Nginx</text><text id="ProcessOnText1019" fill="#000000" font-size="13" x="39.0" y="29.575" font-family="微软雅黑" font-weight="normal" font-style="normal" text-decoration="none" family="微软雅黑" text-anchor="middle" size="13">ccy004</text></g></g><g id="ProcessOnG1020"><path id="ProcessOnPath1021" d="M246.0 498.75L272.0 498.75L272.0 498.75L282.7639320225002 498.75" stroke="#323232" stroke-width="2.0" stroke-dasharray="none" fill="none" marker-end="url(#ProcessOnMarker1022)"/></g><g id="ProcessOnG1024" transform="matrix(1.0,0.0,0.0,1.0,459.0,462.75)" opacity="1.0"><path id="ProcessOnPath1025" d="M0.0 4.0Q0.0 0.0 4.0 0.0L120.0 0.0Q124.0 0.0 124.0 4.0L124.0 66.0Q124.0 70.0 120.0 70.0L4.0 70.0Q0.0 70.0 0.0 66.0Z" stroke="#323232" stroke-width="2.0" stroke-dasharray="none" opacity="1.0" fill="#ffffff"/><g id="ProcessOnG1026" transform="matrix(1.0,0.0,0.0,1.0,10.0,18.75)"><text id="ProcessOnText1027" fill="#000000" font-size="13" x="51.0" y="13.325" font-family="微软雅黑" font-weight="normal" font-style="normal" text-decoration="none" family="微软雅黑" text-anchor="middle" size="13">bookmanager</text><text id="ProcessOnText1028" fill="#000000" font-size="13" x="51.0" y="29.575" font-family="微软雅黑" font-weight="normal" font-style="normal" text-decoration="none" family="微软雅黑" text-anchor="middle" size="13">ccy004</text></g></g><g id="ProcessOnG1029" transform="matrix(1.0,0.0,0.0,1.0,638.0,323.75)" opacity="1.0"><path id="ProcessOnPath1030" d="M0.0 4.0Q0.0 0.0 4.0 0.0L96.0 0.0Q100.0 0.0 100.0 4.0L100.0 66.0Q100.0 70.0 96.0 70.0L4.0 70.0Q0.0 70.0 0.0 66.0Z" stroke="#323232" stroke-width="2.0" stroke-dasharray="none" opacity="1.0" fill="#ffffff"/><g id="ProcessOnG1031" transform="matrix(1.0,0.0,0.0,1.0,10.0,10.625)"><text id="ProcessOnText1032" fill="#000000" font-size="13" x="39.0" y="13.325" font-family="微软雅黑" font-weight="normal" font-style="normal" text-decoration="none" family="微软雅黑" text-anchor="middle" size="13">book-log</text><text id="ProcessOnText1033" fill="#000000" font-size="13" x="39.0" y="29.575" font-family="微软雅黑" font-weight="normal" font-style="normal" text-decoration="none" family="微软雅黑" text-anchor="middle" size="13">ccy002</text><text id="ProcessOnText1034" fill="#000000" font-size="13" x="39.0" y="45.825" font-family="微软雅黑" font-weight="normal" font-style="normal" text-decoration="none" family="微软雅黑" text-anchor="middle" size="13">ccy003</text></g></g><g id="ProcessOnG1035" transform="matrix(1.0,0.0,0.0,1.0,638.0,462.75)" opacity="1.0"><path id="ProcessOnPath1036" d="M0.0 4.0Q0.0 0.0 4.0 0.0L96.0 0.0Q100.0 0.0 100.0 4.0L100.0 66.0Q100.0 70.0 96.0 70.0L4.0 70.0Q0.0 70.0 0.0 66.0Z" stroke="#323232" stroke-width="2.0" stroke-dasharray="none" opacity="1.0" fill="#ffffff"/><g id="ProcessOnG1037" transform="matrix(1.0,0.0,0.0,1.0,10.0,10.625)"><text id="ProcessOnText1038" fill="#000000" font-size="13" x="39.0" y="13.325" font-family="微软雅黑" font-weight="normal" font-style="normal" text-decoration="none" family="微软雅黑" text-anchor="middle" size="13">book-book</text><text id="ProcessOnText1039" fill="#000000" font-size="13" x="39.0" y="29.575" font-family="微软雅黑" font-weight="normal" font-style="normal" text-decoration="none" family="微软雅黑" text-anchor="middle" size="13">ccy002</text><text id="ProcessOnText1040" fill="#000000" font-size="13" x="39.0" y="45.825" font-family="微软雅黑" font-weight="normal" font-style="normal" text-decoration="none" family="微软雅黑" text-anchor="middle" size="13">ccy005</text></g></g><g id="ProcessOnG1041" transform="matrix(1.0,0.0,0.0,1.0,638.0,603.75)" opacity="1.0"><path id="ProcessOnPath1042" d="M0.0 4.0Q0.0 0.0 4.0 0.0L96.0 0.0Q100.0 0.0 100.0 4.0L100.0 66.0Q100.0 70.0 96.0 70.0L4.0 70.0Q0.0 70.0 0.0 66.0Z" stroke="#323232" stroke-width="2.0" stroke-dasharray="none" opacity="1.0" fill="#ffffff"/><g id="ProcessOnG1043" transform="matrix(1.0,0.0,0.0,1.0,10.0,18.75)"><text id="ProcessOnText1044" fill="#000000" font-size="13" x="39.0" y="13.325" font-family="微软雅黑" font-weight="normal" font-style="normal" text-decoration="none" family="微软雅黑" text-anchor="middle" size="13">book-user</text><text id="ProcessOnText1045" fill="#000000" font-size="13" x="39.0" y="29.575" font-family="微软雅黑" font-weight="normal" font-style="normal" text-decoration="none" family="微软雅黑" text-anchor="middle" size="13">ccy002</text></g></g><g id="ProcessOnG1046" transform="matrix(1.0,0.0,0.0,1.0,784.0,323.75)" opacity="1.0"><path id="ProcessOnPath1047" d="M0.0 4.0Q0.0 0.0 4.0 0.0L108.0 0.0Q112.0 0.0 112.0 4.0L112.0 66.0Q112.0 70.0 108.0 70.0L4.0 70.0Q0.0 70.0 0.0 66.0Z" stroke="#323232" stroke-width="2.0" stroke-dasharray="none" opacity="1.0" fill="#ffffff"/><g id="ProcessOnG1048" transform="matrix(1.0,0.0,0.0,1.0,10.0,18.75)"><text id="ProcessOnText1049" fill="#000000" font-size="13" x="45.0" y="13.325" font-family="微软雅黑" font-weight="normal" font-style="normal" text-decoration="none" family="微软雅黑" text-anchor="middle" size="13">eurekaserver</text><text id="ProcessOnText1050" fill="#000000" font-size="13" x="45.0" y="29.575" font-family="微软雅黑" font-weight="normal" font-style="normal" text-decoration="none" family="微软雅黑" text-anchor="middle" size="13">ccy002</text></g></g><g id="ProcessOnG1051"><path id="ProcessOnPath1052" d="M583.0 497.75L610.5 497.75L610.5 358.75L622.7639320225002 358.75" stroke="#323232" stroke-width="2.0" stroke-dasharray="none" fill="none" marker-end="url(#ProcessOnMarker1053)"/></g><g id="ProcessOnG1055"><path id="ProcessOnPath1056" d="M398.0 498.75L428.5 498.75L428.5 497.75L443.7639320225002 497.75" stroke="#323232" stroke-width="2.0" stroke-dasharray="none" fill="none" marker-end="url(#ProcessOnMarker1057)"/></g><g id="ProcessOnG1059"><path id="ProcessOnPath1060" d="M583.0 497.75L610.5 497.75L610.5 638.75L622.7639320225002 638.75" stroke="#323232" stroke-width="2.0" stroke-dasharray="none" fill="none" marker-end="url(#ProcessOnMarker1061)"/></g><g id="ProcessOnG1063"><path id="ProcessOnPath1064" d="M583.0 497.75L610.5 497.75L610.5 497.75L622.7639320225002 497.75" stroke="#323232" stroke-width="2.0" stroke-dasharray="none" fill="none" marker-end="url(#ProcessOnMarker1065)"/></g><g id="ProcessOnG1067" transform="matrix(1.0,0.0,0.0,1.0,784.0,474.75)" opacity="1.0"><path id="ProcessOnPath1068" d="M0.0 4.0Q0.0 0.0 4.0 0.0L108.0 0.0Q112.0 0.0 112.0 4.0L112.0 54.0Q112.0 58.0 108.0 58.0L4.0 58.0Q0.0 58.0 0.0 54.0Z" stroke="#323232" stroke-width="2.0" stroke-dasharray="none" opacity="1.0" fill="#ffffff"/><g id="ProcessOnG1069" transform="matrix(1.0,0.0,0.0,1.0,10.0,12.75)"><text id="ProcessOnText1070" fill="#000000" font-size="13" x="45.0" y="13.325" font-family="微软雅黑" font-weight="normal" font-style="normal" text-decoration="none" family="微软雅黑" text-anchor="middle" size="13">mongoDB</text><text id="ProcessOnText1071" fill="#000000" font-size="13" x="45.0" y="29.575" font-family="微软雅黑" font-weight="normal" font-style="normal" text-decoration="none" family="微软雅黑" text-anchor="middle" size="13">ccy004</text></g></g><g id="ProcessOnG1072" transform="matrix(1.0,0.0,0.0,1.0,784.0,603.75)" opacity="1.0"><path id="ProcessOnPath1073" d="M0.0 4.0Q0.0 0.0 4.0 0.0L108.0 0.0Q112.0 0.0 112.0 4.0L112.0 66.0Q112.0 70.0 108.0 70.0L4.0 70.0Q0.0 70.0 0.0 66.0Z" stroke="#323232" stroke-width="2.0" stroke-dasharray="none" opacity="1.0" fill="#ffffff"/><g id="ProcessOnG1074" transform="matrix(1.0,0.0,0.0,1.0,10.0,18.75)"><text id="ProcessOnText1075" fill="#000000" font-size="13" x="45.0" y="13.325" font-family="微软雅黑" font-weight="normal" font-style="normal" text-decoration="none" family="微软雅黑" text-anchor="middle" size="13">mysql</text><text id="ProcessOnText1076" fill="#000000" font-size="13" x="45.0" y="29.575" font-family="微软雅黑" font-weight="normal" font-style="normal" text-decoration="none" family="微软雅黑" text-anchor="middle" size="13">ccy004</text></g></g></g></g></svg>