<svg xmlns="http://www.w3.org/2000/svg" xmlns:xlink="http://www.w3.org/1999/xlink" id="processonSvg1000" viewBox="46.0 30.0 771.0 645.0" width="771.0" height="645.0"><defs id="ProcessOnDefs1001"/><g id="ProcessOnG1002"><path id="ProcessOnPath1003" d="M46.0 30.0H817.0V675.0H46.0V30.0Z" fill="none"/><g id="ProcessOnG1004"><g id="ProcessOnG1005" transform="matrix(1.0,0.0,0.0,1.0,66.0,50.0)" opacity="1.0"><path id="ProcessOnPath1006" d="M0.0 0.0L100.0 0.0L100.0 70.0L0.0 70.0Z" stroke="#323232" stroke-width="2.0" stroke-dasharray="none" opacity="1.0" fill="#ffffff"/><g id="ProcessOnG1007" transform="matrix(1.0,0.0,0.0,1.0,10.0,26.875)"><text id="ProcessOnText1008" fill="#000000" font-size="13" x="39.0" y="13.325" font-family="微软雅黑" font-weight="normal" font-style="normal" text-decoration="none" family="微软雅黑" text-anchor="middle" size="13">Git+Gerrit</text></g></g><g id="ProcessOnG1009" transform="matrix(1.0,0.0,0.0,1.0,190.0,50.0)" opacity="1.0"><path id="ProcessOnPath1010" d="M0.0 0.0L100.0 0.0L100.0 70.0L0.0 70.0Z" stroke="#323232" stroke-width="2.0" stroke-dasharray="none" opacity="1.0" fill="#ffffff"/><g id="ProcessOnG1011" transform="matrix(1.0,0.0,0.0,1.0,10.0,26.875)"><text id="ProcessOnText1012" fill="#000000" font-size="13" x="39.0" y="13.325" font-family="微软雅黑" font-weight="normal" font-style="normal" text-decoration="none" family="微软雅黑" text-anchor="middle" size="13">Jenkins</text></g></g><g id="ProcessOnG1013" transform="matrix(1.0,0.0,0.0,1.0,309.0,50.0)" opacity="1.0"><path id="ProcessOnPath1014" d="M0.0 0.0L100.0 0.0L100.0 70.0L0.0 70.0Z" stroke="#323232" stroke-width="2.0" stroke-dasharray="none" opacity="1.0" fill="#ffffff"/><g id="ProcessOnG1015" transform="matrix(1.0,0.0,0.0,1.0,10.0,26.875)"><text id="ProcessOnText1016" fill="#000000" font-size="13" x="39.0" y="13.325" font-family="微软雅黑" font-weight="normal" font-style="normal" text-decoration="none" family="微软雅黑" text-anchor="middle" size="13">Docker</text></g></g><g id="ProcessOnG1017" transform="matrix(1.0,0.0,0.0,1.0,429.0,50.0)" opacity="1.0"><path id="ProcessOnPath1018" d="M0.0 0.0L137.0 0.0L137.0 70.0L0.0 70.0Z" stroke="#323232" stroke-width="2.0" stroke-dasharray="none" opacity="1.0" fill="#ffffff"/><g id="ProcessOnG1019" transform="matrix(1.0,0.0,0.0,1.0,10.0,26.875)"><text id="ProcessOnText1020" fill="#000000" font-size="13" x="57.5" y="13.325" font-family="微软雅黑" font-weight="normal" font-style="normal" text-decoration="none" family="微软雅黑" text-anchor="middle" size="13">Nexus+Maven</text></g></g><g id="ProcessOnG1021" transform="matrix(1.0,0.0,0.0,1.0,66.0,208.0)" opacity="1.0"><path id="ProcessOnPath1022" d="M0.0 0.0L100.0 0.0L100.0 243.0L0.0 243.0Z" stroke="#323232" stroke-width="2.0" stroke-dasharray="none" opacity="1.0" fill="#ffffff"/><g id="ProcessOnG1023" transform="matrix(1.0,0.0,0.0,1.0,10.0,113.375)"><text id="ProcessOnText1024" fill="#000000" font-size="13" x="39.0" y="13.325" font-family="微软雅黑" font-weight="normal" font-style="normal" text-decoration="none" family="微软雅黑" text-anchor="middle" size="13">Nginx</text></g></g><g id="ProcessOnG1025" transform="matrix(1.0,0.0,0.0,1.0,190.0,381.0)" opacity="1.0"><path id="ProcessOnPath1026" d="M0.0 0.0L100.0 0.0L100.0 70.0L0.0 70.0Z" stroke="#323232" stroke-width="2.0" stroke-dasharray="none" opacity="1.0" fill="#ffffff"/><g id="ProcessOnG1027" transform="matrix(1.0,0.0,0.0,1.0,10.0,18.75)"><text id="ProcessOnText1028" fill="#000000" font-size="13" x="39.0" y="13.325" font-family="微软雅黑" font-weight="normal" font-style="normal" text-decoration="none" family="微软雅黑" text-anchor="middle" size="13">bookApp</text><text id="ProcessOnText1029" fill="#000000" font-size="13" x="39.0" y="29.575" font-family="微软雅黑" font-weight="normal" font-style="normal" text-decoration="none" family="微软雅黑" text-anchor="middle" size="13">主服务</text></g></g><g id="ProcessOnG1030" transform="matrix(1.0,0.0,0.0,1.0,190.0,297.0)" opacity="1.0"><path id="ProcessOnPath1031" d="M0.0 0.0L100.0 0.0L100.0 70.0L0.0 70.0Z" stroke="#323232" stroke-width="2.0" stroke-dasharray="none" opacity="1.0" fill="#ffffff"/><g id="ProcessOnG1032" transform="matrix(1.0,0.0,0.0,1.0,10.0,26.875)"><text id="ProcessOnText1033" fill="#000000" font-size="13" x="39.0" y="13.325" font-family="微软雅黑" font-weight="normal" font-style="normal" text-decoration="none" family="微软雅黑" text-anchor="middle" size="13">static web</text></g></g><g id="ProcessOnG1034" transform="matrix(1.0,0.0,0.0,1.0,309.0,297.0)" opacity="1.0"><path id="ProcessOnPath1035" d="M0.0 0.0L100.0 0.0L100.0 70.0L0.0 70.0Z" stroke="#323232" stroke-width="2.0" stroke-dasharray="none" opacity="1.0" fill="#ffffff"/><g id="ProcessOnG1036" transform="matrix(1.0,0.0,0.0,1.0,10.0,26.875)"><text id="ProcessOnText1037" fill="#000000" font-size="13" x="39.0" y="13.325" font-family="微软雅黑" font-weight="normal" font-style="normal" text-decoration="none" family="微软雅黑" text-anchor="middle" size="13">resume</text></g></g><g id="ProcessOnG1038" transform="matrix(1.0,0.0,0.0,1.0,309.0,208.0)" opacity="1.0"><path id="ProcessOnPath1039" d="M0.0 0.0L100.0 0.0L100.0 70.0L0.0 70.0Z" stroke="#323232" stroke-width="2.0" stroke-dasharray="none" opacity="1.0" fill="#ffffff"/><g id="ProcessOnG1040" transform="matrix(1.0,0.0,0.0,1.0,10.0,26.875)"><text id="ProcessOnText1041" fill="#000000" font-size="13" x="39.0" y="13.325" font-family="微软雅黑" font-weight="normal" font-style="normal" text-decoration="none" family="微软雅黑" text-anchor="middle" size="13">eureka</text></g></g><g id="ProcessOnG1042" transform="matrix(1.0,0.0,0.0,1.0,432.0,208.0)" opacity="1.0"><path id="ProcessOnPath1043" d="M0.0 0.0L100.0 0.0L100.0 70.0L0.0 70.0Z" stroke="#323232" stroke-width="2.0" stroke-dasharray="none" opacity="1.0" fill="#ffffff"/><g id="ProcessOnG1044" transform="matrix(1.0,0.0,0.0,1.0,10.0,26.875)"><text id="ProcessOnText1045" fill="#000000" font-size="13" x="39.0" y="13.325" font-family="微软雅黑" font-weight="normal" font-style="normal" text-decoration="none" family="微软雅黑" text-anchor="middle" size="13">zuul</text></g></g><g id="ProcessOnG1046" transform="matrix(1.0,0.0,0.0,1.0,190.0,208.0)" opacity="1.0"><path id="ProcessOnPath1047" d="M0.0 0.0L100.0 0.0L100.0 70.0L0.0 70.0Z" stroke="#323232" stroke-width="2.0" stroke-dasharray="none" opacity="1.0" fill="#ffffff"/><g id="ProcessOnG1048" transform="matrix(1.0,0.0,0.0,1.0,10.0,26.875)"><text id="ProcessOnText1049" fill="#000000" font-size="13" x="39.0" y="13.325" font-family="微软雅黑" font-weight="normal" font-style="normal" text-decoration="none" family="微软雅黑" text-anchor="middle" size="13">cloud config</text></g></g><g id="ProcessOnG1050" transform="matrix(1.0,0.0,0.0,1.0,555.0,210.0)" opacity="1.0"><path id="ProcessOnPath1051" d="M0.0 68.0Q9.0 68.0 9.0 61.2L9.0 40.8Q9.0 34.0 22.0 34.0Q9.0 34.0 9.0 27.2L9.0 6.800000000000001Q9.0 0.0 0.0 0.0" stroke="#323232" stroke-width="2.0" stroke-dasharray="none" opacity="1.0" fill="none"/><path id="ProcessOnPath1052" d="M0.0 0.0L98.0 0.0L98.0 68.0L0.0 68.0Z" stroke="none" stroke-width="0.0" stroke-dasharray="none" opacity="1.0" fill="none"/><g id="ProcessOnG1053" transform="matrix(1.0,0.0,0.0,1.0,27.0,25.875)"><text id="ProcessOnText1054" fill="#000000" font-size="13" x="0.0" y="13.325" font-family="微软雅黑" font-weight="normal" font-style="normal" text-decoration="none" family="微软雅黑" text-anchor="start" size="13">服务治理</text></g></g><g id="ProcessOnG1055" transform="matrix(1.0,0.0,0.0,1.0,432.0,297.0)" opacity="1.0"><path id="ProcessOnPath1056" d="M0.0 0.0L100.0 0.0L100.0 70.0L0.0 70.0Z" stroke="#323232" stroke-width="2.0" stroke-dasharray="none" opacity="1.0" fill="#ffffff"/><g id="ProcessOnG1057" transform="matrix(1.0,0.0,0.0,1.0,10.0,26.875)"><text id="ProcessOnText1058" fill="#000000" font-size="13" x="39.0" y="13.325" font-family="微软雅黑" font-weight="normal" font-style="normal" text-decoration="none" family="微软雅黑" text-anchor="middle" size="13">static web</text></g></g><g id="ProcessOnG1059" transform="matrix(1.0,0.0,0.0,1.0,555.0,298.0)" opacity="1.0"><path id="ProcessOnPath1060" d="M0.0 68.0Q9.0 68.0 9.0 61.2L9.0 40.8Q9.0 34.0 22.0 34.0Q9.0 34.0 9.0 27.2L9.0 6.800000000000001Q9.0 0.0 0.0 0.0" stroke="#323232" stroke-width="2.0" stroke-dasharray="none" opacity="1.0" fill="none"/><path id="ProcessOnPath1061" d="M0.0 0.0L98.0 0.0L98.0 68.0L0.0 68.0Z" stroke="none" stroke-width="0.0" stroke-dasharray="none" opacity="1.0" fill="none"/><g id="ProcessOnG1062" transform="matrix(1.0,0.0,0.0,1.0,27.0,25.875)"><text id="ProcessOnText1063" fill="#000000" font-size="13" x="0.0" y="13.325" font-family="微软雅黑" font-weight="normal" font-style="normal" text-decoration="none" family="微软雅黑" text-anchor="start" size="13">静态页面</text></g></g><g id="ProcessOnG1064" transform="matrix(1.0,0.0,0.0,1.0,309.0,381.0)" opacity="1.0"><path id="ProcessOnPath1065" d="M0.0 0.0L100.0 0.0L100.0 70.0L0.0 70.0Z" stroke="#323232" stroke-width="2.0" stroke-dasharray="none" opacity="1.0" fill="#ffffff"/><g id="ProcessOnG1066" transform="matrix(1.0,0.0,0.0,1.0,10.0,18.75)"><text id="ProcessOnText1067" fill="#000000" font-size="13" x="39.0" y="13.325" font-family="微软雅黑" font-weight="normal" font-style="normal" text-decoration="none" family="微软雅黑" text-anchor="middle" size="13">book-log</text><text id="ProcessOnText1068" fill="#000000" font-size="13" x="39.0" y="29.575" font-family="微软雅黑" font-weight="normal" font-style="normal" text-decoration="none" family="微软雅黑" text-anchor="middle" size="13">日志服务</text></g></g><g id="ProcessOnG1069" transform="matrix(1.0,0.0,0.0,1.0,432.0,381.0)" opacity="1.0"><path id="ProcessOnPath1070" d="M0.0 0.0L100.0 0.0L100.0 70.0L0.0 70.0Z" stroke="#323232" stroke-width="2.0" stroke-dasharray="none" opacity="1.0" fill="#ffffff"/><g id="ProcessOnG1071" transform="matrix(1.0,0.0,0.0,1.0,10.0,18.75)"><text id="ProcessOnText1072" fill="#000000" font-size="13" x="39.0" y="13.325" font-family="微软雅黑" font-weight="normal" font-style="normal" text-decoration="none" family="微软雅黑" text-anchor="middle" size="13">book-book</text><text id="ProcessOnText1073" fill="#000000" font-size="13" x="39.0" y="29.575" font-family="微软雅黑" font-weight="normal" font-style="normal" text-decoration="none" family="微软雅黑" text-anchor="middle" size="13">图书服务</text></g></g><g id="ProcessOnG1074" transform="matrix(1.0,0.0,0.0,1.0,555.0,381.0)" opacity="1.0"><path id="ProcessOnPath1075" d="M0.0 0.0L100.0 0.0L100.0 70.0L0.0 70.0Z" stroke="#323232" stroke-width="2.0" stroke-dasharray="none" opacity="1.0" fill="#ffffff"/><g id="ProcessOnG1076" transform="matrix(1.0,0.0,0.0,1.0,10.0,18.75)"><text id="ProcessOnText1077" fill="#000000" font-size="13" x="39.0" y="13.325" font-family="微软雅黑" font-weight="normal" font-style="normal" text-decoration="none" family="微软雅黑" text-anchor="middle" size="13">book-user</text><text id="ProcessOnText1078" fill="#000000" font-size="13" x="39.0" y="29.575" font-family="微软雅黑" font-weight="normal" font-style="normal" text-decoration="none" family="微软雅黑" text-anchor="middle" size="13">用户服务</text></g></g><g id="ProcessOnG1079" transform="matrix(1.0,0.0,0.0,1.0,678.0,382.0)" opacity="1.0"><path id="ProcessOnPath1080" d="M0.0 68.0Q9.0 68.0 9.0 61.2L9.0 40.8Q9.0 34.0 22.0 34.0Q9.0 34.0 9.0 27.2L9.0 6.800000000000001Q9.0 0.0 0.0 0.0" stroke="#323232" stroke-width="2.0" stroke-dasharray="none" opacity="1.0" fill="none"/><path id="ProcessOnPath1081" d="M0.0 0.0L119.0 0.0L119.0 68.0L0.0 68.0Z" stroke="none" stroke-width="0.0" stroke-dasharray="none" opacity="1.0" fill="none"/><g id="ProcessOnG1082" transform="matrix(1.0,0.0,0.0,1.0,27.0,25.875)"><text id="ProcessOnText1083" fill="#000000" font-size="13" x="0.0" y="13.325" font-family="微软雅黑" font-weight="normal" font-style="normal" text-decoration="none" family="微软雅黑" text-anchor="start" size="13">cloud 微服务</text></g></g><g id="ProcessOnG1084" transform="matrix(1.0,0.0,0.0,1.0,66.0,538.0)" opacity="1.0"><path id="ProcessOnPath1085" d="M0.0 0.0L115.0 0.0L115.0 45.0L0.0 45.0Z" stroke="#323232" stroke-width="2.0" stroke-dasharray="none" opacity="1.0" fill="#ffffff"/><g id="ProcessOnG1086" transform="matrix(1.0,0.0,0.0,1.0,10.0,14.375)"><text id="ProcessOnText1087" fill="#000000" font-size="13" x="46.5" y="13.325" font-family="微软雅黑" font-weight="normal" font-style="normal" text-decoration="none" family="微软雅黑" text-anchor="middle" size="13">mariadb</text></g></g><g id="ProcessOnG1088" transform="matrix(1.0,0.0,0.0,1.0,199.0,538.0)" opacity="1.0"><path id="ProcessOnPath1089" d="M0.0 0.0L113.0 0.0L113.0 45.0L0.0 45.0Z" stroke="#323232" stroke-width="2.0" stroke-dasharray="none" opacity="1.0" fill="#ffffff"/><g id="ProcessOnG1090" transform="matrix(1.0,0.0,0.0,1.0,10.0,14.375)"><text id="ProcessOnText1091" fill="#000000" font-size="13" x="45.5" y="13.325" font-family="微软雅黑" font-weight="normal" font-style="normal" text-decoration="none" family="微软雅黑" text-anchor="middle" size="13">mongodb</text></g></g><g id="ProcessOnG1092" transform="matrix(1.0,0.0,0.0,1.0,340.0,538.0)" opacity="1.0"><path id="ProcessOnPath1093" d="M0.0 0.0L102.0 0.0L102.0 45.0L0.0 45.0Z" stroke="#323232" stroke-width="2.0" stroke-dasharray="none" opacity="1.0" fill="#ffffff"/><g id="ProcessOnG1094" transform="matrix(1.0,0.0,0.0,1.0,10.0,14.375)"><text id="ProcessOnText1095" fill="#000000" font-size="13" x="40.0" y="13.325" font-family="微软雅黑" font-weight="normal" font-style="normal" text-decoration="none" family="微软雅黑" text-anchor="middle" size="13">redis</text></g></g><g id="ProcessOnG1096" transform="matrix(1.0,0.0,0.0,1.0,464.0,538.0)" opacity="1.0"><path id="ProcessOnPath1097" d="M0.0 0.0L91.0 0.0L91.0 45.0L0.0 45.0Z" stroke="#323232" stroke-width="2.0" stroke-dasharray="none" opacity="1.0" fill="#ffffff"/><g id="ProcessOnG1098" transform="matrix(1.0,0.0,0.0,1.0,10.0,14.375)"><text id="ProcessOnText1099" fill="#000000" font-size="13" x="34.5" y="13.325" font-family="微软雅黑" font-weight="normal" font-style="normal" text-decoration="none" family="微软雅黑" text-anchor="middle" size="13">NFS</text></g></g><g id="ProcessOnG1100" transform="matrix(1.0,0.0,0.0,1.0,589.0,51.0)" opacity="1.0"><path id="ProcessOnPath1101" d="M0.0 68.0Q9.0 68.0 9.0 61.2L9.0 40.8Q9.0 34.0 22.0 34.0Q9.0 34.0 9.0 27.2L9.0 6.800000000000001Q9.0 0.0 0.0 0.0" stroke="#323232" stroke-width="2.0" stroke-dasharray="none" opacity="1.0" fill="none"/><path id="ProcessOnPath1102" d="M0.0 0.0L181.0 0.0L181.0 68.0L0.0 68.0Z" stroke="none" stroke-width="0.0" stroke-dasharray="none" opacity="1.0" fill="none"/><g id="ProcessOnG1103" transform="matrix(1.0,0.0,0.0,1.0,27.0,25.875)"><text id="ProcessOnText1104" fill="#000000" font-size="13" x="0.0" y="13.325" font-family="微软雅黑" font-weight="normal" font-style="normal" text-decoration="none" family="微软雅黑" text-anchor="start" size="13">开发、部署包构建环境</text></g></g><g id="ProcessOnG1105" transform="matrix(1.0,0.0,0.0,1.0,678.0,537.75)" opacity="1.0"><path id="ProcessOnPath1106" d="M0.0 45.5Q9.0 45.5 9.0 40.95L9.0 27.3Q9.0 22.75 22.0 22.75Q9.0 22.75 9.0 18.2L9.0 4.55Q9.0 0.0 0.0 0.0" stroke="#323232" stroke-width="2.0" stroke-dasharray="none" opacity="1.0" fill="none"/><path id="ProcessOnPath1107" d="M0.0 0.0L109.0 0.0L109.0 45.5L0.0 45.5Z" stroke="none" stroke-width="0.0" stroke-dasharray="none" opacity="1.0" fill="none"/><g id="ProcessOnG1108" transform="matrix(1.0,0.0,0.0,1.0,27.0,14.625)"><text id="ProcessOnText1109" fill="#000000" font-size="13" x="0.0" y="13.325" font-family="微软雅黑" font-weight="normal" font-style="normal" text-decoration="none" family="微软雅黑" text-anchor="start" size="13">基础软件</text></g></g><g id="ProcessOnG1110" transform="matrix(1.0,0.0,0.0,1.0,575.0,538.0)" opacity="1.0"><path id="ProcessOnPath1111" d="M0.0 0.0L91.0 0.0L91.0 45.0L0.0 45.0Z" stroke="#323232" stroke-width="2.0" stroke-dasharray="none" opacity="1.0" fill="#ffffff"/><g id="ProcessOnG1112" transform="matrix(1.0,0.0,0.0,1.0,10.0,14.375)"><text id="ProcessOnText1113" fill="#000000" font-size="13" x="34.5" y="13.325" font-family="微软雅黑" font-weight="normal" font-style="normal" text-decoration="none" family="微软雅黑" text-anchor="middle" size="13">Kafka</text></g></g><g id="ProcessOnG1114" transform="matrix(1.0,0.0,0.0,1.0,66.0,608.0)" opacity="1.0"><path id="ProcessOnPath1115" d="M0.0 0.0L295.0 0.0L295.0 47.0L0.0 47.0Z" stroke="#323232" stroke-width="2.0" stroke-dasharray="none" opacity="1.0" fill="#ffffff"/><g id="ProcessOnG1116" transform="matrix(1.0,0.0,0.0,1.0,10.0,15.375)"><text id="ProcessOnText1117" fill="#000000" font-size="13" x="136.5" y="13.325" font-family="微软雅黑" font-weight="normal" font-style="normal" text-decoration="none" family="微软雅黑" text-anchor="middle" size="13">Kafka-offset-monitor</text></g></g><g id="ProcessOnG1118" transform="matrix(1.0,0.0,0.0,1.0,678.0,608.375)" opacity="1.0"><path id="ProcessOnPath1119" d="M0.0 46.25Q9.0 46.25 9.0 41.625L9.0 27.75Q9.0 23.125 22.0 23.125Q9.0 23.125 9.0 18.5L9.0 4.625Q9.0 0.0 0.0 0.0" stroke="#323232" stroke-width="2.0" stroke-dasharray="none" opacity="1.0" fill="none"/><path id="ProcessOnPath1120" d="M0.0 0.0L114.0 0.0L114.0 46.25L0.0 46.25Z" stroke="none" stroke-width="0.0" stroke-dasharray="none" opacity="1.0" fill="none"/><g id="ProcessOnG1121" transform="matrix(1.0,0.0,0.0,1.0,27.0,15.0)"><text id="ProcessOnText1122" fill="#000000" font-size="13" x="0.0" y="13.325" font-family="微软雅黑" font-weight="normal" font-style="normal" text-decoration="none" family="微软雅黑" text-anchor="start" size="13">监控</text></g></g><g id="ProcessOnG1123" transform="matrix(1.0,0.0,0.0,1.0,66.0,138.0)" opacity="1.0"><path id="ProcessOnPath1124" d="M0.0 0.0L500.0 0.0L500.0 48.0L0.0 48.0Z" stroke="#323232" stroke-width="2.0" stroke-dasharray="none" opacity="1.0" fill="#ffffff"/><g id="ProcessOnG1125" transform="matrix(1.0,0.0,0.0,1.0,10.0,15.875)"><text id="ProcessOnText1126" fill="#000000" font-size="13" x="239.0" y="13.325" font-family="微软雅黑" font-weight="normal" font-style="normal" text-decoration="none" family="微软雅黑" text-anchor="middle" size="13">Docker-Registry</text></g></g><g id="ProcessOnG1127" transform="matrix(1.0,0.0,0.0,1.0,589.0,138.875)" opacity="1.0"><path id="ProcessOnPath1128" d="M0.0 46.25Q9.0 46.25 9.0 41.625L9.0 27.75Q9.0 23.125 22.0 23.125Q9.0 23.125 9.0 18.5L9.0 4.625Q9.0 0.0 0.0 0.0" stroke="#323232" stroke-width="2.0" stroke-dasharray="none" opacity="1.0" fill="none"/><path id="ProcessOnPath1129" d="M0.0 0.0L114.0 0.0L114.0 46.25L0.0 46.25Z" stroke="none" stroke-width="0.0" stroke-dasharray="none" opacity="1.0" fill="none"/><g id="ProcessOnG1130" transform="matrix(1.0,0.0,0.0,1.0,27.0,15.0)"><text id="ProcessOnText1131" fill="#000000" font-size="13" x="0.0" y="13.325" font-family="微软雅黑" font-weight="normal" font-style="normal" text-decoration="none" family="微软雅黑" text-anchor="start" size="13">镜像仓库</text></g></g><g id="ProcessOnG1132" transform="matrix(1.0,0.0,0.0,1.0,386.0,604.0)" opacity="1.0"><path id="ProcessOnPath1133" d="M0.0 0.0L280.0 0.0L280.0 47.0L0.0 47.0Z" stroke="#323232" stroke-width="2.0" stroke-dasharray="none" opacity="1.0" fill="#ffffff"/><g id="ProcessOnG1134" transform="matrix(1.0,0.0,0.0,1.0,10.0,15.375)"><text id="ProcessOnText1135" fill="#000000" font-size="13" x="129.0" y="13.325" font-family="微软雅黑" font-weight="normal" font-style="normal" text-decoration="none" family="微软雅黑" text-anchor="middle" size="13">Elasticsearch</text></g></g><g id="ProcessOnG1136" transform="matrix(1.0,0.0,0.0,1.0,66.0,472.0)" opacity="1.0"><path id="ProcessOnPath1137" d="M0.0 4.0Q0.0 0.0 4.0 0.0L596.0 0.0Q600.0 0.0 600.0 4.0L600.0 45.0Q600.0 49.0 596.0 49.0L4.0 49.0Q0.0 49.0 0.0 45.0Z" stroke="#323232" stroke-width="2.0" stroke-dasharray="none" opacity="1.0" fill="#ffffff"/><g id="ProcessOnG1138" transform="matrix(1.0,0.0,0.0,1.0,10.0,16.375)"><text id="ProcessOnText1139" fill="#000000" font-size="13" x="289.0" y="13.325" font-family="微软雅黑" font-weight="normal" font-style="normal" text-decoration="none" family="微软雅黑" text-anchor="middle" size="13">Supervisor</text></g></g><g id="ProcessOnG1140" transform="matrix(1.0,0.0,0.0,1.0,678.0,473.0)" opacity="1.0"><path id="ProcessOnPath1141" d="M0.0 47.0Q9.0 47.0 9.0 42.3L9.0 28.2Q9.0 23.5 22.0 23.5Q9.0 23.5 9.0 18.8L9.0 4.7Q9.0 0.0 0.0 0.0" stroke="#323232" stroke-width="2.0" stroke-dasharray="none" opacity="1.0" fill="none"/><path id="ProcessOnPath1142" d="M0.0 0.0L117.0 0.0L117.0 47.0L0.0 47.0Z" stroke="none" stroke-width="0.0" stroke-dasharray="none" opacity="1.0" fill="none"/><g id="ProcessOnG1143" transform="matrix(1.0,0.0,0.0,1.0,27.0,15.375)"><text id="ProcessOnText1144" fill="#000000" font-size="13" x="0.0" y="13.325" font-family="微软雅黑" font-weight="normal" font-style="normal" text-decoration="none" family="微软雅黑" text-anchor="start" size="13">进程管理</text></g></g></g></g></svg>